<svg xmlns="http://www.w3.org/2000/svg" xmlns:xlink="http://www.w3.org/1999/xlink" version="1.1" width="1600px" height="1600px" style="shape-rendering:geometricPrecision; text-rendering:geometricPrecision; image-rendering:optimizeQuality; fill-rule:evenodd; clip-rule:evenodd">
  <g><path fill="#096" d="M 774.5,199.5 C 862.347,195.036 946.014,211.536 1025.5,249C 1123.65,294.658 1205.15,360.824 1270,447.5C 1300.33,489.16 1323,534.827 1338,584.5C 1359.01,660.739 1351.68,734.072 1316,804.5C 1281.23,863.516 1229.4,895.016 1160.5,899C 1105.68,902.475 1057.02,887.141 1014.5,853C 976.265,817.374 953.098,773.54 945,721.5C 942.603,707.923 940.936,694.257 940,680.5C 939.873,638.821 939.206,597.154 938,555.5C 935.953,507.592 925.619,461.592 907,417.5C 867.55,334.714 803.717,280.88 715.5,256C 691.673,250.258 667.506,247.758 643,248.5C 619.501,249.24 596.001,249.407 572.5,249C 636.858,219.966 704.191,203.466 774.5,199.5 Z M 978.5,339.5 C 978.56,338.957 978.893,338.624 979.5,338.5C 1074.35,381.861 1150.19,447.195 1207,534.5C 1226.83,567.002 1240.17,602.002 1247,639.5C 1251.95,674.892 1247.95,709.226 1235,742.5C 1217.72,780.237 1188.22,798.904 1146.5,798.5C 1103.46,799.243 1072.96,780.243 1055,741.5C 1047.15,721.909 1042.48,701.576 1041,680.5C 1040.57,639.172 1039.91,597.838 1039,556.5C 1036.76,482.522 1018.42,412.855 984,347.5C 982.391,344.593 980.558,341.927 978.5,339.5 Z"/></g>
  <g><path fill="#000000" d="M 435.5,1288.5 C 385.27,1253.1 342.104,1210.44 306,1160.5C 230.18,1055 195.513,936.997 202,806.5C 205.411,705.176 231.411,610.176 280,521.5C 307.454,472.815 343.621,431.648 388.5,398C 448.92,356.233 515.587,341.233 588.5,353C 673.91,367.412 725.744,416.912 744,501.5C 759.569,571.898 743.569,633.898 696,687.5C 671.49,712.983 643.99,734.483 613.5,752C 571.851,773.147 531.851,796.814 493.5,823C 450.153,853.338 415.653,891.505 390,937.5C 346.018,1021.85 342.352,1107.85 379,1195.5C 395.846,1227.89 414.68,1258.89 435.5,1288.5 Z M 536.5,449.5 C 565.088,448.481 591.755,454.981 616.5,469C 622,473.167 626.833,478 631,483.5C 644.734,508.099 650.734,534.432 649,562.5C 645.626,584.244 636.626,603.244 622,619.5C 610.718,631.121 598.552,641.621 585.5,651C 547.004,672.747 508.67,694.747 470.5,717C 415.495,750.996 368.328,793.83 329,845.5C 320.5,857.829 312.5,870.496 305,883.5C 295.158,780.216 312.825,681.883 358,588.5C 378.004,549.005 404.837,514.838 438.5,486C 467.142,463.063 499.809,450.897 536.5,449.5 Z"/></g>
  <g><path fill="#000000" d="M 670.5,949.5 C 727.383,946.221 780.716,958.388 830.5,986C 888.963,1025.05 952.63,1052.39 1021.5,1068C 1063.73,1077.33 1106.4,1080.33 1149.5,1077C 1232.31,1064.68 1303.81,1029.84 1364,972.5C 1371.05,965.386 1377.38,957.719 1383,949.5C 1352.35,1078.03 1285.52,1183.2 1182.5,1265C 1098.2,1330.64 1003.2,1373.3 897.5,1393C 837.146,1403.09 777.146,1401.42 717.5,1388C 614.158,1361.66 544.991,1298.16 510,1197.5C 482.428,1105.2 507.928,1031.7 586.5,977C 612.534,961.488 640.534,952.322 670.5,949.5 Z M 682.5,1049.5 C 715.738,1048.48 747.071,1055.64 776.5,1071C 830.98,1106.4 889.314,1134.07 951.5,1154C 1008.56,1171.15 1066.89,1179.82 1126.5,1180C 1052.23,1240.46 967.561,1278.79 872.5,1295C 826.745,1302.24 781.411,1300.24 736.5,1289C 666.605,1269.77 622.105,1225.27 603,1155.5C 596.084,1130.5 600.084,1107.5 615,1086.5C 631.72,1063.56 654.22,1051.22 682.5,1049.5 Z"/></g>
  </svg>